# xmcd
#
# Track frame offsets: 
#        150
#        12568
#        31994
#        51793
#        69810
#        96378
#        115892
#        132485
#        153554
#        171069
#        190050
#        216781
#        230688
#        249112
#
# Disc length: 3573 seconds
#
# Revision: 1
# Processed by: cddbd v1.5.2PL0 Copyright (c) Steve Scherf et al.
# Submitted via: ExactAudioCopy v1.0b3
#
DISCID=bc0df30e
DTITLE=Various Artist - Latino! Greatest Hits [CD 1)
DYEAR=2008
DGENRE=Latin
TTITLE0=Rubén Blades - Caminando
TTITLE1=Los Hermanos Rosario - La Dueña Del Swing
TTITLE2=Gloria Estefan - Hoy (Salsa Mix)
TTITLE3=Monchy and Alexandra - Polo Opuesto
TTITLE4=Johnny Rivera and Ray Sepúlveda - No Vale La Pena
TTITLE5=Cristian Castro - Azul
TTITLE6=Oscar D'León - Llorarás
TTITLE7=India - Ese Hombre
TTITLE8=Adalberto Álvarez Y Su Son - Para Bailar Casino
TTITLE9=Don Omar - Pobre Diabla
TTITLE10=Fruko Y Sus Tesos - El Preso
TTITLE11=Aventura - Cuándo Volverás
TTITLE12=Juan Formell Y Los Van Van - Esto Te Pone La Cabeza Mala
TTITLE13=Los Hermanos Rodríguez - Son De La Habana
EXTD=YEAR: 2008
EXTT0=
EXTT1=
EXTT2=
EXTT3=
EXTT4=
EXTT5=
EXTT6=
EXTT7=
EXTT8=
EXTT9=
EXTT10=
EXTT11=
EXTT12=
EXTT13=
PLAYORDER=
